<svg width="315" height="122" viewBox="0 0 315 122" fill="none" xmlns="http://www.w3.org/2000/svg">
<g filter="url(#filter0_d_2_8)">
<path d="M32.76 53L20.52 31.616C19.704 32.528 18.864 33.44 18 34.352C17.184 35.264 16.32 36.2 15.408 37.16V53H6.768V4.04H15.408V27.296C19.056 23.12 22.176 19.16 24.768 15.416C27.36 11.624 29.592 7.832 31.464 4.04H40.896C38.832 8.168 36.624 12.08 34.272 15.776C31.968 19.424 29.52 22.808 26.928 25.928L43.2 53H32.76ZM77.1992 53L74.1752 43.424H57.3992L54.3752 53H45.8072L62.1512 4.04H69.7832L86.1992 53H77.1992ZM62.0792 28.448L59.8472 35.504H71.6552L69.4232 28.448L65.8232 16.064L62.0792 28.448ZM122.601 44.72V53H94.3774V4.04H103.017V44.72H122.601ZM139.51 53H130.87V4.04H139.51V53Z" fill="#0F172A"/>
<path d="M32.76 53L20.52 31.616C19.704 32.528 18.864 33.44 18 34.352C17.184 35.264 16.32 36.2 15.408 37.16V53H6.768V4.04H15.408V27.296C19.056 23.12 22.176 19.16 24.768 15.416C27.36 11.624 29.592 7.832 31.464 4.04H40.896C38.832 8.168 36.624 12.08 34.272 15.776C31.968 19.424 29.52 22.808 26.928 25.928L43.2 53H32.76ZM77.1992 53L74.1752 43.424H57.3992L54.3752 53H45.8072L62.1512 4.04H69.7832L86.1992 53H77.1992ZM62.0792 28.448L59.8472 35.504H71.6552L69.4232 28.448L65.8232 16.064L62.0792 28.448ZM122.601 44.72V53H94.3774V4.04H103.017V44.72H122.601ZM139.51 53H130.87V4.04H139.51V53Z" fill="#2563EB" fill-opacity="0.49"/>
</g>
<path d="M28.128 110V75.44H34.176L46.656 108.752H44.832L57.216 75.44H63.36V110H59.472V77.504H60L47.952 110H43.248L31.2 77.792H31.728V110H28.128ZM81.372 110.48C79.036 110.48 76.972 109.936 75.18 108.848C73.388 107.728 71.98 106.208 70.956 104.288C69.932 102.368 69.42 100.16 69.42 97.664C69.42 95.168 69.916 92.976 70.908 91.088C71.932 89.168 73.356 87.68 75.18 86.624C77.004 85.568 79.1 85.04 81.468 85.04C83.74 85.04 85.708 85.536 87.372 86.528C89.068 87.52 90.364 88.912 91.26 90.704C92.188 92.496 92.652 94.608 92.652 97.04C92.652 97.36 92.636 97.664 92.604 97.952C92.604 98.24 92.572 98.56 92.508 98.912H72.3V95.696H90.156L88.908 97.472C88.908 94.528 88.252 92.272 86.94 90.704C85.66 89.104 83.836 88.304 81.468 88.304C79.036 88.304 77.068 89.152 75.564 90.848C74.092 92.512 73.356 94.768 73.356 97.616C73.356 100.528 74.092 102.864 75.564 104.624C77.068 106.352 79.068 107.216 81.564 107.216C83.132 107.216 84.508 106.88 85.692 106.208C86.876 105.504 87.74 104.512 88.284 103.232H91.932C91.132 105.472 89.788 107.248 87.9 108.56C86.044 109.84 83.868 110.48 81.372 110.48ZM107.945 110.432C105.225 110.432 103.241 109.824 101.993 108.608C100.777 107.36 100.169 105.568 100.169 103.232V79.808L104.009 78.368V103.184C104.009 104.56 104.361 105.568 105.065 106.208C105.769 106.848 106.921 107.168 108.521 107.168C109.161 107.168 109.705 107.136 110.153 107.072C110.633 106.976 111.017 106.864 111.305 106.736V110C110.985 110.128 110.521 110.224 109.913 110.288C109.337 110.384 108.681 110.432 107.945 110.432ZM95.1285 88.784V85.52H111.305V88.784H95.1285ZM116.246 110V85.52H119.846V91.76H120.086V110H116.246ZM120.086 97.232L119.462 91.424C120.038 89.344 121.062 87.76 122.534 86.672C124.006 85.584 125.702 85.04 127.622 85.04C128.422 85.04 128.966 85.104 129.254 85.232V88.928C129.094 88.864 128.87 88.832 128.582 88.832C128.294 88.8 127.942 88.784 127.526 88.784C125.094 88.784 123.238 89.52 121.958 90.992C120.71 92.432 120.086 94.512 120.086 97.232ZM144.422 110.48C142.022 110.48 139.91 109.92 138.086 108.8C136.262 107.68 134.838 106.16 133.814 104.24C132.822 102.288 132.326 100.096 132.326 97.664C132.326 95.2 132.838 93.024 133.862 91.136C134.886 89.248 136.294 87.76 138.086 86.672C139.91 85.584 142.022 85.04 144.422 85.04C146.854 85.04 148.966 85.584 150.758 86.672C152.582 87.76 153.99 89.248 154.982 91.136C156.006 93.024 156.518 95.2 156.518 97.664C156.518 100.096 156.006 102.288 154.982 104.24C153.99 106.16 152.582 107.68 150.758 108.8C148.966 109.92 146.854 110.48 144.422 110.48ZM144.422 107.216C146.086 107.216 147.526 106.816 148.742 106.016C149.958 105.184 150.902 104.048 151.574 102.608C152.246 101.168 152.582 99.504 152.582 97.616C152.582 94.8 151.83 92.544 150.326 90.848C148.854 89.152 146.886 88.304 144.422 88.304C141.99 88.304 140.022 89.152 138.518 90.848C137.014 92.544 136.262 94.8 136.262 97.616C136.262 99.504 136.598 101.168 137.27 102.608C137.942 104.048 138.886 105.184 140.102 106.016C141.35 106.816 142.79 107.216 144.422 107.216ZM162.278 110V75.44H166.118V110H162.278ZM183.985 110.48C181.585 110.48 179.473 109.92 177.649 108.8C175.825 107.68 174.401 106.16 173.377 104.24C172.385 102.288 171.889 100.096 171.889 97.664C171.889 95.2 172.401 93.024 173.425 91.136C174.449 89.248 175.857 87.76 177.649 86.672C179.473 85.584 181.585 85.04 183.985 85.04C186.417 85.04 188.529 85.584 190.321 86.672C192.145 87.76 193.553 89.248 194.545 91.136C195.569 93.024 196.081 95.2 196.081 97.664C196.081 100.096 195.569 102.288 194.545 104.24C193.553 106.16 192.145 107.68 190.321 108.8C188.529 109.92 186.417 110.48 183.985 110.48ZM183.985 107.216C185.649 107.216 187.089 106.816 188.305 106.016C189.521 105.184 190.465 104.048 191.137 102.608C191.809 101.168 192.145 99.504 192.145 97.616C192.145 94.8 191.393 92.544 189.889 90.848C188.417 89.152 186.449 88.304 183.985 88.304C181.553 88.304 179.585 89.152 178.081 90.848C176.577 92.544 175.825 94.8 175.825 97.616C175.825 99.504 176.161 101.168 176.833 102.608C177.505 104.048 178.449 105.184 179.665 106.016C180.913 106.816 182.353 107.216 183.985 107.216ZM211.584 120.32C208.672 120.32 206.24 119.632 204.288 118.256C202.368 116.912 201.2 115.12 200.784 112.88H204.432C204.784 114.16 205.568 115.168 206.784 115.904C208.032 116.672 209.712 117.056 211.824 117.056C214.32 117.056 216.208 116.368 217.488 114.992C218.768 113.648 219.408 111.664 219.408 109.04V103.808L219.888 103.904C219.344 105.76 218.256 107.248 216.624 108.368C214.992 109.456 213.056 110 210.816 110C208.672 110 206.784 109.488 205.152 108.464C203.52 107.408 202.256 105.952 201.36 104.096C200.464 102.24 200.016 100.08 200.016 97.616C200.016 95.12 200.48 92.928 201.408 91.04C202.336 89.152 203.632 87.696 205.296 86.672C206.992 85.616 208.96 85.088 211.2 85.088C213.504 85.088 215.424 85.648 216.96 86.768C218.528 87.888 219.568 89.488 220.08 91.568L219.648 91.616V85.52H223.248V109.04C223.248 112.528 222.208 115.28 220.128 117.296C218.048 119.312 215.2 120.32 211.584 120.32ZM211.776 106.688C214.176 106.688 216.08 105.856 217.488 104.192C218.896 102.528 219.6 100.272 219.6 97.424C219.6 94.64 218.896 92.448 217.488 90.848C216.08 89.216 214.176 88.4 211.776 88.4C209.344 88.4 207.424 89.216 206.016 90.848C204.64 92.48 203.952 94.72 203.952 97.568C203.952 100.352 204.656 102.576 206.064 104.24C207.472 105.872 209.376 106.688 211.776 106.688ZM230.949 110V85.52H234.789V110H230.949ZM230.661 79.952V75.44H235.077V79.952H230.661ZM257.364 110C257.236 109.456 257.14 108.832 257.076 108.128C257.044 107.424 257.028 106.528 257.028 105.44H256.788V93.728C256.788 91.872 256.356 90.512 255.492 89.648C254.66 88.752 253.3 88.304 251.412 88.304C249.556 88.304 248.068 88.688 246.948 89.456C245.86 90.192 245.252 91.248 245.124 92.624H241.428C241.588 90.256 242.58 88.4 244.404 87.056C246.228 85.712 248.612 85.04 251.556 85.04C254.596 85.04 256.852 85.76 258.324 87.2C259.796 88.64 260.532 90.8 260.532 93.68V105.44C260.532 106.144 260.58 106.88 260.676 107.648C260.772 108.384 260.9 109.168 261.06 110H257.364ZM248.964 110.48C246.436 110.48 244.42 109.872 242.916 108.656C241.444 107.408 240.708 105.712 240.708 103.568C240.708 101.424 241.444 99.76 242.916 98.576C244.388 97.392 246.532 96.56 249.348 96.08L257.892 94.64V97.808L249.924 99.056C248.132 99.344 246.772 99.824 245.844 100.496C244.916 101.168 244.452 102.144 244.452 103.424C244.452 104.672 244.868 105.616 245.7 106.256C246.564 106.896 247.828 107.216 249.492 107.216C251.636 107.216 253.38 106.736 254.724 105.776C256.1 104.784 256.788 103.504 256.788 101.936L257.412 105.344C256.9 106.976 255.892 108.24 254.388 109.136C252.916 110.032 251.108 110.48 248.964 110.48Z" fill="#2563EB"/>
<defs>
<filter id="filter0_d_2_8" x="2.768" y="4.03999" width="140.742" height="56.96" filterUnits="userSpaceOnUse" color-interpolation-filters="sRGB">
<feFlood flood-opacity="0" result="BackgroundImageFix"/>
<feColorMatrix in="SourceAlpha" type="matrix" values="0 0 0 0 0 0 0 0 0 0 0 0 0 0 0 0 0 0 127 0" result="hardAlpha"/>
<feOffset dy="4"/>
<feGaussianBlur stdDeviation="2"/>
<feComposite in2="hardAlpha" operator="out"/>
<feColorMatrix type="matrix" values="0 0 0 0 0 0 0 0 0 0 0 0 0 0 0 0 0 0 0.25 0"/>
<feBlend mode="normal" in2="BackgroundImageFix" result="effect1_dropShadow_2_8"/>
<feBlend mode="normal" in="SourceGraphic" in2="effect1_dropShadow_2_8" result="shape"/>
</filter>
</defs>
</svg>
